<svg xmlns="http://www.w3.org/2000/svg" viewBox="0 0 200 200" width="200" height="200">
  <defs>
    <linearGradient id="gradient1" x1="0%" y1="0%" x2="100%" y2="100%">
      <stop offset="0%" style="stop-color:#5CB0FE;stop-opacity:1" />
      <stop offset="100%" style="stop-color:#388EDC;stop-opacity:1" />
    </linearGradient>
    <linearGradient id="gradient2" x1="0%" y1="0%" x2="100%" y2="100%">
      <stop offset="0%" style="stop-color:#388EDC;stop-opacity:1" />
      <stop offset="100%" style="stop-color:#2C6EC7;stop-opacity:1" />
    </linearGradient>
    <filter id="glow">
      <feGaussianBlur stdDeviation="3" result="coloredBlur"/>
      <feMerge> 
        <feMergeNode in="coloredBlur"/>
        <feMergeNode in="SourceGraphic"/>
      </feMerge>
    </filter>
  </defs>
  
  <!-- Background circle -->
  <circle cx="100" cy="100" r="95" fill="url(#gradient1)" filter="url(#glow)" opacity="0.9"/>
  
  <!-- Inner decorative circle -->
  <circle cx="100" cy="100" r="80" fill="none" stroke="rgba(255,255,255,0.2)" stroke-width="1"/>
  
  <!-- Letter X -->
  <g transform="translate(40, 50)">
    <!-- X - First diagonal -->
    <path d="M10 20 L50 100" stroke="white" stroke-width="8" stroke-linecap="round" fill="none"/>
    <!-- X - Second diagonal -->
    <path d="M50 20 L10 100" stroke="white" stroke-width="8" stroke-linecap="round" fill="none"/>
    <!-- X - Center accent -->
    <circle cx="30" cy="60" r="4" fill="rgba(255,255,255,0.8)"/>
  </g>
  
  <!-- Letter M -->
  <g transform="translate(110, 50)">
    <!-- M - Left vertical -->
    <path d="M10 20 L10 100" stroke="white" stroke-width="8" stroke-linecap="round" fill="none"/>
    <!-- M - Right vertical -->
    <path d="M50 20 L50 100" stroke="white" stroke-width="8" stroke-linecap="round" fill="none"/>
    <!-- M - Left diagonal -->
    <path d="M10 20 L30 60" stroke="white" stroke-width="6" stroke-linecap="round" fill="none"/>
    <!-- M - Right diagonal -->
    <path d="M50 20 L30 60" stroke="white" stroke-width="6" stroke-linecap="round" fill="none"/>
  </g>
  
  <!-- Decorative tech elements -->
  <g opacity="0.6">
    <!-- Top left corner -->
    <circle cx="30" cy="30" r="2" fill="white"/>
    <circle cx="35" cy="25" r="1.5" fill="rgba(255,255,255,0.7)"/>
    
    <!-- Top right corner -->
    <circle cx="170" cy="30" r="2" fill="white"/>
    <circle cx="165" cy="25" r="1.5" fill="rgba(255,255,255,0.7)"/>
    
    <!-- Bottom left corner -->
    <circle cx="30" cy="170" r="2" fill="white"/>
    <circle cx="35" cy="175" r="1.5" fill="rgba(255,255,255,0.7)"/>
    
    <!-- Bottom right corner -->
    <circle cx="170" cy="170" r="2" fill="white"/>
    <circle cx="165" cy="175" r="1.5" fill="rgba(255,255,255,0.7)"/>
  </g>
  
  <!-- Outer ring -->
  <circle cx="100" cy="100" r="95" fill="none" stroke="rgba(255,255,255,0.3)" stroke-width="2"/>
</svg>
